<?xml version="1.0" encoding="utf-8"?>
<!-- Generator: Adobe Illustrator 19.0.0, SVG Export Plug-In . SVG Version: 6.00 Build 0)  -->
<svg version="1.1" id="Layer_1" xmlns="http://www.w3.org/2000/svg" xmlns:xlink="http://www.w3.org/1999/xlink" x="0px" y="0px"
	 viewBox="0 0 981 173" style="enable-background:new 0 0 981 173;" xml:space="preserve">
<style type="text/css">
	.st0{fill:#FFFFFF;}
</style>
<path id="XMLID_25_" class="st0" d="M959.6,163c0.8,1.2,1.2,2.1,1.3,2.9c0.1,0.8-0.2,1.4-0.8,1.8c-0.6,0.5-1.5,0.8-2.7,0.9
	c-1.2,0.2-2.8,0.3-4.7,0.3c-1.9,0-3.4-0.1-4.5-0.2c-1.1-0.1-2-0.3-2.6-0.6c-0.7-0.3-1.2-0.6-1.6-1c-0.4-0.4-0.7-0.9-1.1-1.5
	l-39.2-67.8l-39.9,67.8c-0.4,0.6-0.8,1.1-1.3,1.5c-0.4,0.4-1,0.8-1.6,1c-0.7,0.3-1.5,0.4-2.6,0.6c-1.1,0.1-2.5,0.2-4.3,0.2
	c-1.9,0-3.5-0.1-4.6-0.3c-1.2-0.2-2-0.5-2.5-0.9c-0.5-0.5-0.7-1.1-0.6-1.8c0.1-0.8,0.5-1.7,1.3-2.9l47.2-76.8l-45.6-75.3
	c-0.8-1.2-1.2-2.1-1.3-2.9c-0.1-0.8,0.1-1.4,0.6-1.8c0.5-0.5,1.3-0.8,2.4-0.9c1.1-0.2,2.7-0.3,4.6-0.3c1.8,0,3.3,0.1,4.5,0.2
	c1.1,0.1,2,0.3,2.8,0.6c0.7,0.3,1.3,0.6,1.6,1s0.8,0.9,1.2,1.5L904,72.7l38.4-64.5c0.3-0.6,0.7-1.1,1-1.5c0.3-0.4,0.8-0.8,1.4-1
	c0.6-0.3,1.4-0.4,2.4-0.6c1-0.1,2.4-0.2,4.1-0.2c1.8,0,3.2,0.1,4.5,0.3c1.2,0.2,2.1,0.5,2.7,0.9c0.6,0.5,0.9,1.1,0.8,1.8
	c0,0.8-0.4,1.7-1.1,2.9l-45.6,74.7L959.6,163 M814.3,5.7c0.6,0,1.1,0.1,1.6,0.4c0.5,0.3,0.9,0.7,1.3,1.3c0.3,0.6,0.6,1.3,0.8,2.2
	c0.2,0.9,0.3,1.9,0.3,3.1c0,1.1-0.1,2.1-0.3,2.9c-0.2,0.8-0.4,1.5-0.8,2.1c-0.3,0.5-0.8,1-1.3,1.3c-0.5,0.3-1,0.4-1.6,0.4h-82.2
	c-0.6,0-1.1-0.1-1.6-0.4c-0.5-0.3-0.9-0.7-1.3-1.3c-0.3-0.5-0.6-1.2-0.8-2.1c-0.2-0.8-0.3-1.8-0.3-2.9c0-1.2,0.1-2.2,0.3-3.1
	c0.2-0.9,0.4-1.6,0.8-2.2c0.3-0.6,0.8-1,1.3-1.3c0.5-0.3,1-0.4,1.6-0.4H814.3z M814.3,75.9c0.6,0,1.1,0.1,1.6,0.4
	c0.5,0.3,0.9,0.7,1.3,1.3c0.3,0.6,0.6,1.3,0.8,2.2c0.2,0.9,0.3,1.9,0.3,3.1c0,1.1-0.1,2.1-0.3,2.9c-0.2,0.8-0.4,1.5-0.8,2.1
	c-0.3,0.5-0.8,1-1.3,1.3c-0.5,0.3-1,0.4-1.6,0.4h-82.2c-0.6,0-1.1-0.1-1.6-0.4c-0.5-0.3-0.9-0.7-1.3-1.3c-0.3-0.5-0.6-1.2-0.8-2.1
	c-0.2-0.8-0.3-1.8-0.3-2.9c0-1.2,0.1-2.2,0.3-3.1c0.2-0.9,0.4-1.6,0.8-2.2c0.3-0.6,0.8-1,1.3-1.3c0.5-0.3,1-0.4,1.6-0.4H814.3z
	 M814.3,155.2c0.6,0,1.1,0.1,1.6,0.4c0.5,0.3,0.9,0.7,1.3,1.3c0.3,0.6,0.6,1.3,0.8,2.2c0.2,0.9,0.3,1.9,0.3,3.1
	c0,1.1-0.1,2.1-0.3,2.9c-0.2,0.8-0.4,1.5-0.8,2.1s-0.8,1-1.3,1.3c-0.5,0.3-1,0.4-1.6,0.4h-82.2c-0.6,0-1.1-0.1-1.6-0.4
	c-0.5-0.3-0.9-0.7-1.3-1.3c-0.3-0.5-0.6-1.2-0.8-2.1c-0.2-0.8-0.3-1.8-0.3-2.9c0-1.2,0.1-2.2,0.3-3.1c0.2-0.9,0.4-1.6,0.8-2.2
	c0.3-0.6,0.8-1,1.3-1.3c0.5-0.3,1-0.4,1.6-0.4H814.3z"/>
<path id="XMLID_15_" class="st0" d="M501.7,5.7c0.6,0,1.1,0.1,1.6,0.4c0.5,0.3,0.9,0.7,1.3,1.3c0.3,0.6,0.6,1.3,0.8,2.2
	c0.2,0.9,0.3,1.9,0.3,3.1c0,1.1-0.1,2.1-0.3,2.9c-0.2,0.8-0.4,1.5-0.8,2.1c-0.3,0.5-0.8,1-1.3,1.3c-0.5,0.3-1,0.4-1.6,0.4h-82.2
	c-0.6,0-1.1-0.1-1.6-0.4c-0.5-0.3-0.9-0.7-1.3-1.3c-0.3-0.5-0.6-1.2-0.8-2.1c-0.2-0.8-0.3-1.8-0.3-2.9c0-1.2,0.1-2.2,0.3-3.1
	c0.2-0.9,0.4-1.6,0.8-2.2c0.3-0.6,0.8-1,1.3-1.3c0.5-0.3,1-0.4,1.6-0.4H501.7 M501.7,75.9c0.6,0,1.1,0.1,1.6,0.4
	c0.5,0.3,0.9,0.7,1.3,1.3c0.3,0.6,0.6,1.3,0.8,2.2c0.2,0.9,0.3,1.9,0.3,3.1c0,1.1-0.1,2.1-0.3,2.9c-0.2,0.8-0.4,1.5-0.8,2.1
	c-0.3,0.5-0.8,1-1.3,1.3c-0.5,0.3-1,0.4-1.6,0.4h-82.2c-0.6,0-1.1-0.1-1.6-0.4c-0.5-0.3-0.9-0.7-1.3-1.3c-0.3-0.5-0.6-1.2-0.8-2.1
	c-0.2-0.8-0.3-1.8-0.3-2.9c0-1.2,0.1-2.2,0.3-3.1c0.2-0.9,0.4-1.6,0.8-2.2c0.3-0.6,0.8-1,1.3-1.3c0.5-0.3,1-0.4,1.6-0.4H501.7z
	 M501.7,155.2c0.6,0,1.1,0.1,1.6,0.4c0.5,0.3,0.9,0.7,1.3,1.3c0.3,0.6,0.6,1.3,0.8,2.2c0.2,0.9,0.3,1.9,0.3,3.1
	c0,1.1-0.1,2.1-0.3,2.9c-0.2,0.8-0.4,1.5-0.8,2.1c-0.3,0.5-0.8,1-1.3,1.3c-0.5,0.3-1,0.4-1.6,0.4h-82.2c-0.6,0-1.1-0.1-1.6-0.4
	c-0.5-0.3-0.9-0.7-1.3-1.3c-0.3-0.5-0.6-1.2-0.8-2.1c-0.2-0.8-0.3-1.8-0.3-2.9c0-1.2,0.1-2.2,0.3-3.1c0.2-0.9,0.4-1.6,0.8-2.2
	c0.3-0.6,0.8-1,1.3-1.3c0.5-0.3,1-0.4,1.6-0.4H501.7z M218.4,5.7c0.6,0,1.1,0.1,1.6,0.4c0.5,0.3,0.9,0.7,1.3,1.3
	c0.3,0.6,0.6,1.3,0.8,2.2c0.2,0.9,0.2,1.9,0.2,3.1c0,1.1-0.1,2.1-0.2,2.9c-0.2,0.8-0.4,1.5-0.8,2.1c-0.3,0.5-0.8,1-1.3,1.3
	c-0.5,0.3-1,0.4-1.6,0.4h-82.2c-0.6,0-1.1-0.1-1.6-0.4c-0.5-0.3-0.9-0.7-1.3-1.3c-0.3-0.5-0.6-1.2-0.8-2.1c-0.2-0.8-0.2-1.8-0.2-2.9
	c0-1.2,0.1-2.2,0.2-3.1c0.2-0.9,0.4-1.6,0.8-2.2c0.3-0.6,0.8-1,1.3-1.3c0.5-0.3,1-0.4,1.6-0.4H218.4z M218.4,75.9
	c0.6,0,1.1,0.1,1.6,0.4c0.5,0.3,0.9,0.7,1.3,1.3c0.3,0.6,0.6,1.3,0.8,2.2c0.2,0.9,0.2,1.9,0.2,3.1c0,1.1-0.1,2.1-0.2,2.9
	c-0.2,0.8-0.4,1.5-0.8,2.1c-0.3,0.5-0.8,1-1.3,1.3c-0.5,0.3-1,0.4-1.6,0.4h-82.2c-0.6,0-1.1-0.1-1.6-0.4c-0.5-0.3-0.9-0.7-1.3-1.3
	c-0.3-0.5-0.6-1.2-0.8-2.1c-0.2-0.8-0.2-1.8-0.2-2.9c0-1.2,0.1-2.2,0.2-3.1c0.2-0.9,0.4-1.6,0.8-2.2c0.3-0.6,0.8-1,1.3-1.3
	c0.5-0.3,1-0.4,1.6-0.4H218.4z M218.4,155.2c0.6,0,1.1,0.1,1.6,0.4c0.5,0.3,0.9,0.7,1.3,1.3c0.3,0.6,0.6,1.3,0.8,2.2
	c0.2,0.9,0.2,1.9,0.2,3.1c0,1.1-0.1,2.1-0.2,2.9c-0.2,0.8-0.4,1.5-0.8,2.1c-0.3,0.5-0.8,1-1.3,1.3c-0.5,0.3-1,0.4-1.6,0.4h-82.2
	c-0.6,0-1.1-0.1-1.6-0.4c-0.5-0.3-0.9-0.7-1.3-1.3s-0.6-1.2-0.8-2.1c-0.2-0.8-0.2-1.8-0.2-2.9c0-1.2,0.1-2.2,0.2-3.1
	c0.2-0.9,0.4-1.6,0.8-2.2c0.3-0.6,0.8-1,1.3-1.3c0.5-0.3,1-0.4,1.6-0.4H218.4z M101.9,161c0,1.2-0.1,2.2-0.3,3
	c-0.2,0.8-0.4,1.6-0.8,2.2c-0.3,0.6-0.8,1.1-1.3,1.4c-0.5,0.3-1.1,0.4-1.8,0.4H26.7c-1.5,0-3.1-0.6-4.7-1.7
	c-1.6-1.1-2.4-3.2-2.4-6.3V6.6c0-0.5,0.1-1,0.4-1.4c0.3-0.4,0.7-0.8,1.3-1c0.6-0.3,1.4-0.5,2.4-0.6c1-0.2,2.2-0.3,3.7-0.3
	c1.5,0,2.8,0.1,3.7,0.3c1,0.2,1.8,0.4,2.3,0.6c0.6,0.3,1,0.6,1.3,1c0.3,0.4,0.4,0.9,0.4,1.4V154h62.8c0.7,0,1.3,0.1,1.8,0.4
	c0.5,0.3,0.9,0.7,1.3,1.3c0.3,0.6,0.6,1.3,0.8,2.2C101.8,158.8,101.9,159.8,101.9,161z M325.4,165.3c-0.3,0.7-0.6,1.2-1.1,1.7
	c-0.5,0.5-1.2,0.8-2,1.1c-0.8,0.3-1.8,0.4-2.9,0.6c-1.1,0.1-2.4,0.2-3.9,0.2c-1,0-1.9,0-2.8-0.1c-0.8,0-1.6-0.1-2.3-0.2
	c-0.7-0.1-1.3-0.3-1.8-0.4c-0.5-0.2-1-0.4-1.4-0.6c-0.4-0.3-0.8-0.5-1-0.9c-0.3-0.3-0.5-0.8-0.6-1.3L249.5,9.2
	c-0.5-1.3-0.7-2.3-0.7-3.1c0-0.8,0.4-1.4,0.9-1.8c0.6-0.4,1.5-0.7,2.7-0.8c1.2-0.1,2.7-0.2,4.7-0.2c1.6,0,2.9,0.1,3.9,0.2
	c1,0.1,1.7,0.3,2.3,0.6c0.6,0.3,1,0.6,1.3,1c0.3,0.4,0.6,0.9,0.8,1.5l51,144.4h0.1L365.9,6.6c0.2-0.6,0.4-1.1,0.6-1.5
	c0.3-0.4,0.7-0.8,1.3-1c0.6-0.3,1.5-0.4,2.6-0.6c1.1-0.1,2.5-0.2,4.3-0.2c1.9,0,3.5,0.1,4.6,0.3c1.1,0.2,1.9,0.5,2.4,0.9
	c0.5,0.4,0.7,1,0.6,1.8c0,0.8-0.3,1.8-0.8,3L325.4,165.3z M633.8,161c0,1.2-0.1,2.2-0.3,3c-0.2,0.8-0.4,1.6-0.8,2.2
	c-0.3,0.6-0.8,1.1-1.3,1.4c-0.5,0.3-1.1,0.4-1.8,0.4h-71.1c-1.5,0-3.1-0.6-4.7-1.7c-1.6-1.1-2.4-3.2-2.4-6.3V6.6
	c0-0.5,0.1-1,0.4-1.4c0.3-0.4,0.7-0.8,1.3-1c0.6-0.3,1.4-0.5,2.4-0.6c1-0.2,2.2-0.3,3.7-0.3c1.5,0,2.8,0.1,3.7,0.3
	c1,0.2,1.8,0.4,2.3,0.6c0.6,0.3,1,0.6,1.3,1c0.3,0.4,0.4,0.9,0.4,1.4V154h62.8c0.7,0,1.3,0.1,1.8,0.4c0.5,0.3,0.9,0.7,1.3,1.3
	c0.3,0.6,0.6,1.3,0.8,2.2C633.7,158.8,633.8,159.8,633.8,161z"/>
</svg>
